<svg width="119" height="107" viewBox="0 0 119 107" fill="none" xmlns="http://www.w3.org/2000/svg">
<path d="M118.333 5.91667C118.333 2.64901 115.684 0 112.417 0H5.91667C2.64901 0 0 2.64901 0 5.91667V100.583C0 103.851 2.64901 106.5 5.91667 106.5H112.417C115.684 106.5 118.333 103.851 118.333 100.583V5.91667ZM11.8333 71H32.0449C36.61 81.4482 47.0356 88.75 59.1667 88.75C71.2976 88.75 81.7234 81.4482 86.2887 71H106.5V94.6667H11.8333V71ZM11.8333 11.8333H106.5V59.1667H76.9167C76.9167 68.97 68.97 76.9167 59.1667 76.9167C49.3633 76.9167 41.4167 68.97 41.4167 59.1667H11.8333V11.8333ZM82.8333 35.5H65.0833V17.75H53.25V35.5H35.5L59.1667 62.125L82.8333 35.5Z" fill="#5E5EE8"/>
</svg>
